<?xml version="1.0" standalone="yes"?>
<svg xmlns="http://www.w3.org/2000/svg" width="1024" height="1024" viewBox="100 100 800 800">
<path style="fill:#00000000; stroke:none;" d="M0 0L0 1024L1024 1024L1024 0L0 0z"/>
<path style="fill:#03443c; stroke:none;" d="M499 145.424C490.087 146.595 480.973 146.271 472 147.169C454.862 148.884 437.696 152.3 421 156.475C350.807 174.028 286.237 214.24 237.09 267C205.445 300.971 180.074 340.941 162.8 384C148.448 419.777 140.715 457.655 138.09 496C136.042 525.905 138.939 556.689 144.8 586C170.032 712.175 267.53 816.281 388 858.305C444.494 878.011 504.821 883.492 564 875.711C735.145 853.206 877.357 705.655 884.961 532C886.899 487.727 880.914 441.919 866.305 400C827.379 288.304 734.562 198.721 622 162.656C591.484 152.878 559.97 147.361 528 145.961C518.335 145.537 508.704 144.15 499 145.424z"/>
<path style="fill:#FFFFFF; stroke:none;" d="M421 182C426.346 183.644 434.26 182 440 182C451.722 182 463.344 182.985 475 184.169C503.99 187.114 532.615 196.195 559 208.309C589.697 222.402 616.758 242.399 643 263.4C662.115 278.697 680.485 295.207 702 307.139C721.92 318.187 744.397 323.646 767 322.089C776.28 321.45 785.361 320.824 794 317C789.376 309.574 783.707 302.622 778 296C775.626 293.245 773.298 289.726 769.985 288.028C762.35 284.115 750.268 289.4 742 288.816C722.621 287.446 705.281 282.683 688 273.742C671.665 265.29 657.371 252.966 643 241.661C617.056 221.252 590.606 201.556 561 186.753C549.765 181.136 538.323 175.324 526 172.5C516.506 170.324 506.669 171 497 171C471.258 171 445.771 174.971 421 182M594 180C599.058 184.395 605.399 187.398 611 191.079C620.916 197.595 630.512 204.754 640 211.873C672.846 236.518 703.385 266 747 266C744.616 260.992 740.146 257.682 736 254.131C727.722 247.041 718.976 240.516 710 234.341C675.2 210.403 635.812 188.653 594 180M380 213C387.168 217.301 398.789 218.145 407 220.011C416.342 222.133 425.595 226.107 435 227.674C444.39 229.239 454.491 228.264 464 229.17C491.116 231.752 517.57 238.833 543 248.425C575.565 260.708 604.716 280.133 632 301.424C658.307 321.953 682.702 344.717 715 355.485C734.538 361.998 756.436 364.789 777 362.83C790.687 361.527 803.686 358.08 817 355C815.801 348.279 811.518 342.727 808 337C783.311 342.66 760.496 348.165 735 343.537C697.461 336.723 667.472 312.131 639 288.435C620.046 272.661 600.217 257.102 579 244.453C531.768 216.294 477.187 201.31 422 205.089C407.604 206.075 393.967 209.798 380 213M285 256C295.391 258.151 305.455 261.175 316 262.728C348.966 267.585 382.351 269.258 415 276.211C448.081 283.256 480.258 295.221 510 311.309C534.025 324.304 557 339.965 578 357.435C615.898 388.963 651.51 424.831 700 439.279C735.804 449.948 780.017 447.814 811 425.115C818.4 419.694 825.685 413.84 831.829 407C834.059 404.518 837.104 401.482 837.501 398C837.987 393.734 834.762 388.722 833 385C814.133 397.428 797.06 409.277 775 415.573C726.637 429.374 676.775 414.735 637 385.848C611.531 367.351 590.081 343.65 566 323.438C535.065 297.474 500.1 276.652 463 260.85C432.73 247.958 400.51 242.332 369 233.576C360.637 231.252 352.239 229.077 344 226.333C340.179 225.061 335.089 222.176 331 222.709C326.448 223.302 321.756 227.433 318 229.858C310.433 234.744 303.193 239.956 296 245.374C291.869 248.486 287.368 251.325 285 256M519 264C524.86 269.924 534.01 273.394 541 278.003C554.535 286.927 567.534 296.72 580 307.081C606.732 329.299 630.559 355.828 660 374.564C687.29 391.931 718.96 399.661 751 397.086C765.1 395.952 779.7 392.152 792 385C787.04 383.809 781.068 385.348 776 385.83C768.201 386.572 759.826 386.303 752 385.961C728.267 384.921 703.86 378 683 366.691C657.319 352.769 635.692 332.574 613 314.449C592.978 298.457 570.527 284.864 547 274.719C537.968 270.825 528.597 266.221 519 264M235 309C251.014 310.266 266.948 312.811 283 313.911C305.61 315.459 328.383 314.541 351 316.089C401.045 319.517 450.476 330.278 496 351.781C524.069 365.039 550.208 382.301 575 400.895C616.922 432.337 657.873 467.045 709 482.279C745.216 493.07 785.171 493.404 821 481.333C829.661 478.414 838.148 474.221 846 469.547C848.815 467.871 853.015 465.837 854.396 462.674C855.777 459.512 854.463 455.227 853.919 452C852.353 442.703 850.738 432.688 847 424C839.572 429.227 833.314 436.079 826 441.522C813.132 451.097 798.403 458.177 783 462.573C770.09 466.257 757.388 468 744 468C726.544 468 709.825 466.294 693 461.279C635.84 444.244 594.971 397.945 549 362.884C513.114 335.515 472.378 315.035 429 302.71C390.445 291.755 350.324 291.179 311 284.754C300.208 282.99 289.56 280.739 279 277.848C274.915 276.73 269.292 273.655 265 274.777C260.625 275.92 257.533 280.803 254.715 284C247.952 291.67 238.756 299.288 235 309M203 356C216.295 355.429 229.725 352.454 243 351.17C272.052 348.358 302.8 347.09 332 349.089C415.429 354.803 492.356 388.051 553 446.039C574.726 466.814 595.427 489.153 613.765 513C638.01 544.53 659.646 577.896 688.001 606.004C715.204 632.97 749.676 652.925 787 661.87C794.906 663.764 802.967 664.518 811 665.576C814.511 666.038 819.568 666.871 822.787 664.972C826.094 663.021 827.603 658.355 829 655C809.034 648.616 789.499 641.72 771 631.691C748.918 619.72 728.571 603.632 710 586.83C653.074 535.325 612.809 467.996 555 417.286C502.705 371.414 436.573 347.466 368 340.83C331.463 337.295 294.656 336.58 258 334.961C249.41 334.581 240.478 333.166 232 331.753C228.498 331.17 223.562 329.416 220.093 330.643C216.901 331.772 215.23 335.355 213.495 338C209.669 343.835 206.248 349.826 203 356z"/>
<path style="fill:#FFFFFF; stroke:none;" d="M177 419C189.544 414.373 201.361 407.687 214 403.053C232.388 396.313 252.53 392.055 272 390.17C374.863 380.209 473.547 428.529 541.83 504C559.776 523.835 575.914 545.132 589.797 568C604.197 591.721 616.053 616.884 637 635.83C672.34 667.795 715.077 687.634 762 695.246C772.591 696.964 783.279 698 794 698C797.4 698 802.472 698.909 805.471 696.972C808.11 695.269 809.578 691.67 811 689C800.659 687.079 790.242 686.086 780 683.525C754.685 677.194 730.697 666.109 709 651.645C644.553 608.685 609.504 535.949 556.961 481C519.233 441.545 474.517 408.942 423 390.053C407.069 384.212 390.542 380.848 374 377.339C349.956 372.238 325.473 372 301 372C278.919 372 256.925 372.023 235 374.715C224.974 375.947 214.972 377.256 205 378.92C200.92 379.601 194.894 379.752 191.418 382.164C188.477 384.206 187.461 388.847 186.2 392C182.694 400.765 179.131 409.788 177 419M163 497C195.413 479.946 229.636 464.639 266 458.321C327.439 447.646 390.843 459.274 447 485.781C472.189 497.671 496.206 511.718 519 527.721C530.911 536.083 541.9 545.996 554 554C539.909 531.373 519.757 511.476 500 493.834C456.221 454.742 404.262 425.368 346 415.25C327.03 411.955 308.185 412 289 412C258.279 412 228.201 420.276 200 432.012C193.166 434.856 186.541 438.249 180 441.702C176.998 443.287 173.023 444.57 170.934 447.39C167.902 451.486 167.725 458.141 166.92 463C165.053 474.271 163.49 485.592 163 497M640 474C650.993 491.594 666.365 507.309 679.87 523C708.195 555.911 739 587.789 777 609.573C790.894 617.537 805.7 624.22 821 628.975C825.028 630.226 833.554 634.183 837.581 631.883C840.127 630.428 840.787 626.53 841.692 624C844.155 617.116 846.93 610.272 848 603C815.891 595.572 786.397 578.338 759 560.692C734.022 544.604 709.46 527.825 686 509.576C670.835 497.779 656.009 484.588 640 474M167 568C200.706 550.265 234.643 531.75 272 522.884C288.777 518.903 306.739 516.008 324 516.008C392.945 516.008 459.028 550.413 513 590.895C548.527 617.542 572.946 655.807 609 681.573C647.459 709.057 692.565 721.596 739 727.155C748.961 728.348 758.953 729.996 769 730C772.692 730.001 777.541 730.783 780.911 728.972C784.031 727.296 786.107 723.86 788 721C731.991 720.536 674.157 696.689 632 660.572C602.742 635.505 578.958 604.769 550 579.286C492.107 528.338 420.148 488.332 343 478.282C295.888 472.144 248.338 481.538 205 500.15C194.807 504.528 184.635 509.497 175 515.001C171.571 516.959 166.197 518.908 164.028 522.379C162.026 525.581 162.881 531.38 163.039 535C163.523 546.055 165.608 557.043 167 568M717 507C723.115 513.18 733.981 517.147 742 520.396C767.692 530.803 797.701 533.934 825 530.13C833.592 528.933 841.93 526.802 850 523.6C852.929 522.437 857.159 521.418 858.972 518.606C860.509 516.224 859.999 512.692 860 510C860.003 502.616 859.001 495.378 859 488C845.004 493.297 832.552 501.47 818 505.974C785.281 516.102 749.971 514.537 717 507M179 617C188.582 614.261 197.919 609.399 207 605.306C218.111 600.296 229.369 595.582 240 589.576C253.587 581.9 266.277 572.732 280 565.309C304.087 552.28 332.303 542.003 360 542C353.285 538.773 344.318 539.165 337 538.985C329.103 538.791 321.935 538.075 314 538.83C278.007 542.258 246.774 552.873 214 567.92C203.861 572.575 193.821 577.997 184 583.309C180.792 585.043 174.962 587.122 173.067 590.39C171.74 592.68 172.794 595.643 173.375 598C174.958 604.42 177.295 610.62 179 617M858 544C835.484 555.315 810.195 553.5 786 553C792.891 558.71 802.802 562.328 811 565.85C824.613 571.697 839.19 579.004 854 581C854.71 572.313 857.115 563.691 858.155 555C858.611 551.186 859.517 547.624 858 544M186 638C189.273 649.448 196.464 659.104 201 670C205.807 665.432 209.454 659.797 214.039 655C228.006 640.387 243.188 627.094 261 617.312C327.065 581.029 410.613 592.632 479 616.079C497.457 622.407 515.038 630.522 533 638C529.658 633.269 525.185 629.916 521 625.964C511.047 616.566 500.072 608.193 489 600.152C441.527 565.677 375.181 552.098 319 571.695C295.778 579.796 277.28 593.974 256 605.688C233.393 618.133 209.853 628.214 186 638M234 721C238.549 718.783 241.02 714.757 244.289 711C248.915 705.684 253.937 700.227 259.09 695.424C277.102 678.634 297.775 665.519 321 657.218C362.648 642.331 410.054 644.042 452 657.025C476.712 664.675 499.687 676.647 524 685.308C549.8 694.498 577.207 700.473 604 706C599.075 699.951 591.422 695.714 585 691.344C570.214 681.283 554.98 672.742 539 664.753C497.736 644.124 452.532 628.63 407 621.246C380.412 616.934 352.731 614.696 326 619.08C291.236 624.783 257.548 639.097 233.715 666.001C228.756 671.598 223.782 676.889 219.427 683C217.794 685.292 215.369 688.074 215.121 691C214.836 694.363 217.741 697.415 219.495 700C224.26 707.023 229.52 713.806 234 721z"/>
<path style="fill:#FFFFFF; stroke:none;" d="M440 678C435.733 674.959 430.074 674.492 425 673.576C414.972 671.764 405.195 670.236 395 669.985C389.957 669.861 385.078 668.819 380 669.039C345.015 670.558 312.982 680.349 285 701.887C275.217 709.418 266.349 718.038 259.015 728C256.855 730.933 252.731 735.086 252.933 739C253.159 743.377 258.184 747.063 260.911 750C262.865 752.104 265.082 755.867 268.025 756.654C272.671 757.898 278.324 747.958 280.87 745C291.335 732.84 302.931 721.767 316 712.427C350.743 687.599 397.515 674.647 440 678M299 758C318.16 747.919 337.831 739.755 359 734.887C443.226 715.52 528.616 743.05 612 754.282C643.384 758.51 674.422 762.925 706 765.089C714.71 765.687 723.243 766 732 766C735.865 766 740.283 766.554 744 765.297C749.857 763.316 754.189 757.665 759 754C755.573 751.947 751.889 752.099 748 751.576C740.344 750.546 732.656 749.749 725 748.718C696.675 744.902 668.198 741.423 640 736.714C558.243 723.062 474.871 687.493 391 704.4C365.208 709.599 340.547 720.498 320 737.001C312.315 743.174 304.003 749.346 299 758z"/>
<path style="fill:#FFFFFF; stroke:none;" d="M301 782L301 784C307.352 788.197 316.121 798.534 324 799.1C327.73 799.367 331.763 796.309 335 794.781C341.404 791.758 348.252 789.176 355 787.029C374.682 780.766 395.435 777.94 416 777.039C458.506 775.178 502.353 785.067 544 792.576C572.254 797.67 600.631 799.851 629 803.576C634.982 804.361 640.999 803.679 647 804.089C664.524 805.29 685.5 808.699 701 799.4C706.227 796.264 712.998 793.487 716 788C692.84 788 669.967 785.114 647 782.285C607.474 777.415 568.188 770.641 529 763.576C469.893 752.919 408.918 743.615 350 760.427C332.511 765.418 316.812 773.232 301 782z"/>
<path style="fill:#FFFFFF; stroke:none;" d="M348 813C353.972 818.189 361.798 820.938 369 824C372.876 825.648 376.72 827.646 381 827.892C387.3 828.255 393.775 826.051 400 825.286C409.999 824.058 420.936 823.212 431 824.17C455.519 826.503 479.74 829.74 504 834.261C551.596 843.13 601.191 853.501 646 828C639.218 825.154 629.36 826.531 622 825.83C601.905 823.917 582.021 821.415 562 818.718C490.879 809.137 418.216 785.913 348 813M446 848C450.533 850.179 456.055 850.584 461 851.414C469.291 852.805 477.616 854.338 486 855C481.869 852.509 476.706 852.203 472 851.414C463.462 849.982 454.667 848.072 446 848z"/>
</svg>
