<?xml version="1.0" standalone="yes"?>
<svg xmlns="http://www.w3.org/2000/svg" width="1024" height="1024" viewBox="180 280 655 480">
<path style="fill:#00000000; stroke:none;" d="M0 0L0 1024L1024 1024L1024 0L0 0z"/>
<path style="fill:#035331; stroke:none;" d="M496 219.424C481.587 221.317 467.241 222.388 453 225.651C405.888 236.448 362.035 258.354 325 289.438C287.386 321.009 256.596 362.268 238.45 408C204.238 494.22 211.601 596.253 259.449 676C281.66 713.018 311.905 744.838 347 769.859C375.633 790.273 408.923 805.313 443 813.873C479.293 822.991 515.983 824.704 553 819.718C659.819 805.328 752.765 728.259 790.575 628C805.901 587.36 811.876 542.299 808.911 499C803.334 417.568 763.498 339.061 700 287.46C666.68 260.383 628.275 241.049 587 229.576C568.322 224.384 549.31 221.24 530 219.911C518.827 219.141 507.192 217.955 496 219.424z"/>
<path style="fill:#FFFFFF; stroke:none;" d="M525 246L525 346C531.636 342.368 537.33 336.147 543 331.155C564.18 312.508 581.399 285.107 582 256C562.937 251.63 544.392 248.451 525 246M498 480L498 326L498 277C498 267.068 498.818 256.794 497 247C478.2 247 460.095 251.104 442 255.884C435.857 257.507 425.235 259.411 420.603 263.994C417.917 266.652 418.338 274.378 418.09 278C417.223 290.655 416.777 303.345 415.91 316C413.726 347.894 414.758 380.775 429.37 410C439.705 430.67 457.55 446.499 475 461.08C482.566 467.402 489.865 474.438 498 480M608 265C601.182 291.34 593.932 315.545 574.911 336C564.993 346.665 553.979 356.183 543 365.718C537.447 370.541 529.827 375.262 526.457 382C522.499 389.912 525 403.317 525 412L525 483C535.733 471.793 543.401 457.476 554.089 446C569.7 429.241 588.512 415.976 600.396 396C605.588 387.272 609.688 377.888 612.102 368C614.081 359.89 614.084 350.585 623.001 346.657C631.071 343.101 639.123 349.885 639.894 358C641.286 372.649 632.865 385.576 629 399C646.515 395.7 664.736 392.751 681 385.11C697.603 377.311 712.117 364.848 725 352C716.838 339.661 705.741 328.971 694.996 318.911C675.907 301.04 654.65 285.944 631 274.703C623.431 271.105 616.13 267.219 608 265M248 477C268.603 471.208 291.618 468.625 313 470.089C328.186 471.129 342.948 474.056 358 476C349.863 457.116 340.095 439.323 340.001 418C339.959 408.655 345.05 396.133 356.996 401.009C366.105 404.728 365.882 414.805 367.247 423C369.794 438.288 374.239 452.841 382.698 466C398.508 490.592 424.773 506.28 444.985 527C464.908 547.423 479.864 573.263 497 596C500.507 587.642 498 574.06 498 565C498 551.261 501.183 532.781 495.353 520C488.756 505.541 474.711 495.106 463 485C443.516 468.186 423.407 451.543 410.228 429C392.483 398.645 386.514 362.824 388.039 328C388.784 311.004 391.953 294.03 392 277C373.545 283.716 356.895 297.834 342 310.247C303.766 342.111 274.75 383.751 259 431C254.174 445.478 248.661 461.652 248 477M525 587C531.422 584.281 536.181 578.926 540.985 574C556.179 558.42 564.299 537.815 581 523.289C593.938 512.037 609.791 508.753 624 499.934C633.979 493.741 642.501 484.798 647.334 474C650.8 466.257 653.971 452.719 665 453.283C673.197 453.703 677.813 462.635 676.789 470C674.887 483.692 664.396 498.464 654.985 507.996C647.517 515.561 638.571 521.615 629 526.216C619.187 530.933 608.782 534.25 600 540.9C580.013 556.032 571.067 581.658 553 598.961C547.438 604.287 541.256 608.828 535 613.291C531.666 615.669 527.34 618.048 525.742 622.039C523.904 626.634 525 633.133 525 638L525 672C544.106 653.281 561.286 634.3 586 622.552C596.021 617.788 606.206 613.606 617 610.895C623.544 609.252 631.694 609.392 636.996 604.852C658.018 586.852 665.946 560.08 681.029 538C704.385 503.807 740.256 487 781 487C775.851 446.29 761.116 410.915 742 375C734.789 377.774 729.078 383.704 723 388.346C712.738 396.184 701.861 403.879 690 409.138C664.332 420.52 635.156 420.793 610 433.37C581.671 447.535 560.784 476.213 543.831 502C537.554 511.548 528.953 521.815 525.927 533C524.208 539.357 525 546.474 525 553L525 587M417 637C399.165 617.542 369.493 619.305 346 613.764C333.218 610.749 321.599 603.58 312.17 594.575C300.62 583.543 292.369 568.102 291.185 552C290.545 543.286 298.728 533.851 307.999 536.657C318.633 539.875 317.387 551.517 320.054 560C322.957 569.233 329.811 577.099 338 582.073C349.654 589.152 361.967 589.557 375 591.428C387.629 593.241 400.544 596.543 412 602.27C438.808 615.672 460.713 638.664 483 658.286C488.097 662.773 492.438 668.082 498 672C498 662.421 499.537 651.193 496.316 642C493.909 635.131 488.573 628.735 484.231 623C477.457 614.051 470.405 605.239 464.025 596C445.199 568.736 427.318 538.695 399 520.079C377.671 506.057 352.02 500.759 327 497.95C306.808 495.683 284.995 495.948 265 499.805C260.341 500.703 248.995 501.549 246.028 505.564C244.413 507.749 245.018 511.439 244.715 514C243.668 522.838 244.303 531.183 244.91 540C247.394 576.069 256.548 611.591 272.753 644C277.377 653.247 282.275 662.379 288.004 671C290.176 674.269 292.666 678.908 297.004 679.382C301.855 679.911 308.336 677.11 313 675.849C329.612 671.355 343.356 664.042 358 655.204C375.957 644.366 395.914 637.435 417 637M669 609C694.181 611.057 717.789 625.458 742 631.884C747.715 633.401 753.038 635.728 759 636C763.796 618.43 771.542 601.843 775.765 584C781.335 560.469 782 537.038 782 513C752.867 513.019 725.705 522.455 707.289 546C699.431 556.047 694.842 568.106 688.397 579C682.55 588.883 673.096 598.411 669 609M525 750C538.699 740.35 549.221 725.813 561.025 714.025C577.964 697.107 597.952 683.047 621 675.884C631.867 672.507 647.547 666.768 659 669.533C667.627 671.616 673.751 680.997 668.297 688.985C663.304 696.297 655.686 695.327 648 696.428C638.374 697.807 629.074 700.591 620 704.065C590.036 715.537 571.617 742.843 549 763.911C542.238 770.209 530.489 776.798 526.179 785.039C524.613 788.035 525.002 791.732 525 795C592.307 795 657.387 760.613 704 714C715.728 702.272 726.099 689.67 735.502 676C737.51 673.08 744.932 665.404 742.839 661.563C741.074 658.324 732.295 657.099 729 656C716.817 651.935 705.093 646.626 693 642.308C681.058 638.043 668.76 633.964 656 633.089C616.452 630.379 580.545 651.394 553.961 679.004C543.438 689.933 530.825 704.214 526.221 719C523.273 728.467 525 740.171 525 750M313 703C318.856 711.853 327.002 719.644 335 726.576C337.43 728.682 340.635 732.651 344 733.083C347.37 733.515 350.656 729.852 353 727.92C358.693 723.225 364.58 718.546 371 714.873C389.771 704.134 409.88 700.686 431 698.439C445.042 696.945 456.258 714.235 441.985 722.991C438.236 725.29 434.181 724.802 430 725.089C423.411 725.543 416.461 726.269 410 727.668C394.008 731.132 380.945 739.413 368 749C372.879 758.548 388.744 764.404 398 768.966C428.198 783.852 464.057 794.996 498 795L498 748C498 738.496 498.793 728.262 496.215 719C494.486 712.792 490.793 707.399 487.424 702C468.151 671.119 434.267 657.864 399 665.286C383.171 668.618 370.711 678.304 357 686.127C343.564 693.793 328.069 699.514 313 703z"/>
</svg>
