<?xml version="1.0" standalone="yes"?>
<svg xmlns="http://www.w3.org/2000/svg" width="1024" height="1024" viewBox="200 180 640 680">
<path style="fill:#00000000; stroke:none;" d="M0 0L0 1024L1024 1024L1024 0L0 0z"/>
<path style="fill:#074436; stroke:none;" d="M496 189.424C469.8 192.865 444.41 196.27 419 204.191C371.858 218.887 326.423 246.849 291.09 281.17C254.189 317.013 225.62 362.204 209.355 411C182.18 492.525 190.425 586.414 231.309 662C256.193 708.005 291.577 745.651 334 775.859C365.394 798.214 401.643 814.489 439 823.873C477.592 833.568 516.59 835.901 556 830.718C620.764 822.202 681.549 793.667 730 749.83C789.418 696.07 829.42 616.176 834.911 536C837.47 498.624 833.989 458.944 823.279 423C789.521 309.703 693.624 217.843 577 194.551C551.238 189.406 522.251 185.978 496 189.424z"/>
<path style="fill:#FFFFFF; stroke:none;" d="M404 225C408.775 226.712 414.992 224.488 420 224.086C431.374 223.171 442.574 223 454 223C468.075 223 481.86 225.88 496 224.911C517.17 223.459 537.783 216.19 559 214.17C573.122 212.825 586.957 215.991 601 216C594.542 212.491 586.175 211.291 579 209.906C568.254 207.832 557.909 205.886 547 204.83C513.636 201.602 479.738 203.487 447 211.236C432.311 214.713 418.246 220.18 404 225M334 264C338.524 265.898 343.269 264.413 348 264.089C357.034 263.471 366.986 263.311 376 264.17C408.119 267.229 439.589 275.372 472 270.573C504.489 265.762 533.616 248.501 567 247.039C586.748 246.175 606.062 248.067 625 253.885C641.699 259.016 657.005 267.728 673 274.573C689.713 281.724 707.234 286.333 725 290C715.384 276.462 697.113 268.203 683 260.15C644.316 238.08 603.019 225.006 558 228.089C534.799 229.678 512.277 238.757 489 238.996C476.299 239.127 463.674 236.325 451 236.015C434.413 235.608 418.423 238.07 402 239.834C388.053 241.333 372.084 242.761 359 248.093C350.003 251.76 341.847 258.38 334 264M477 283C480.584 285.757 485.629 285.876 490 286.881C499.3 289.019 508.623 290.858 518 292.611C543.398 297.36 569.285 298.329 595 295.83C617.469 293.647 639.589 287.832 662 285C654.461 278.755 643.043 275.417 634 271.8C598.59 257.638 564.44 258.258 528 267.884C510.95 272.388 494.583 280.632 477 283M299 295C323.062 289.205 350.709 293.3 374 300.435C381.1 302.61 387.808 306.82 395 308.471C401.951 310.066 409.885 309.599 417 310.089C424.338 310.595 431.843 312.242 439 313.887C474.75 322.105 509.261 334.331 546 337.83C570.709 340.183 595.999 336.804 620 331.116C638.238 326.793 656.256 320.075 675 318.171C693.649 316.276 712.619 316.288 731 320.5C741.297 322.86 750.885 327.234 761 330C749.125 312.942 732.455 306.39 713 301.526C665.398 289.626 617.65 309.818 570 310.985C512.212 312.401 456.415 290.403 400 281.08C377.921 277.432 357.173 277.286 335 278.911C321.25 279.919 306.671 281.65 299 295M272 326C314.997 312.014 360.255 325.977 394 354.439C405.92 364.493 415.863 376.179 427.004 386.961C444.315 403.713 463.133 418.169 486 426.308C525.998 440.543 568.768 433.935 607 417.573C630.233 407.629 655.559 389.851 682 391.209C702.24 392.249 720.141 401.376 737 411.95C751.512 421.051 765.594 431.177 778 443.039C791.12 455.585 803.042 470.58 818 481C817.989 465.087 808.095 455.348 799.291 443C779.316 414.983 754.04 383.777 720 372.745C690.182 363.082 662.744 375.247 634 382.525C608.838 388.897 583.879 390.619 558 389.985C517.312 388.989 477.943 372.759 443 353.139C428.035 344.737 414.244 334.146 399 326.258C370.747 311.64 341.817 304.201 310 307C295.401 308.284 278.745 311.449 272 326M423 324C426.878 328.231 432.162 330.915 437 333.95C446.455 339.88 456.075 345.17 466 350.258C503.667 369.566 546.545 379.818 589 376.911C622.955 374.585 653.685 360.212 687 355.428C708.647 352.32 733.34 352.365 755 355.282C763.88 356.479 772.271 359.193 781 361C776.448 348.995 766.065 346.263 755 342.308C735.347 335.283 716.966 331 696 331C653.245 331 613.728 350.09 571 351.961C520.277 354.182 471.732 335.14 423 324M240 375C250.323 372.612 260.313 368.825 271 368.089C303.611 365.844 335.676 378.603 358.91 401.17C391.896 433.208 408.867 480.722 458 492.346C474.291 496.2 490.829 495.523 507 491.265C524.157 486.748 540.291 478.668 558 476.282C588.419 472.185 617.572 484.043 648 481.911C672.733 480.177 694.824 466.822 719 462.463C733.481 459.852 748.505 459.539 763 462.084C769.783 463.275 776.218 465.998 783 467C774.694 455.614 761.374 445.269 750 437.011C731.184 423.35 708.252 405.995 684 405.04C655.243 403.908 630.486 422.254 605 432.547C569.857 446.741 532.089 451.918 495 443.116C469.807 437.137 447.049 423.059 428 405.83C414.781 393.875 403.248 380.094 390 368.171C375.567 355.181 358.53 344.901 340 339.029C319.771 332.617 298.44 332.411 278 338.011C271.713 339.733 264.2 341.189 259.04 345.394C250.608 352.264 244.533 365.291 240 375M744 368C750.029 374.224 758.331 378.658 765 384.296C776.82 394.29 787.312 405.939 796.999 418C802.044 424.28 807.528 430.693 811 438C813.08 430.969 806.768 418.68 804.189 412C800.389 402.157 797.103 388.149 789.471 380.529C786.159 377.224 781.305 375.619 777 374.054C766.561 370.26 755.113 368.092 744 368M226 408C268.892 408 307.491 423.405 336.91 455C354.237 473.608 363.759 497.276 379.45 517C398.658 541.146 425.122 555.484 455 561.789C494.038 570.028 529.048 553.007 567 548.285C586.96 545.801 607.001 548.28 627 546.911C639.664 546.043 652.005 543.301 664 539.139C687.703 530.915 708.688 516.735 732 507.615C755.877 498.274 780.517 495 806 495C799.087 486.658 785.181 482.064 775 479.141C754.604 473.287 733.727 472.33 713 477.236C698.973 480.556 685.868 486.76 672 490.575C660.729 493.675 647.754 496.572 636 495.907C611.363 494.513 586.808 486.769 562 489.17C546.566 490.663 532.585 496.978 518 501.656C501.346 506.997 483.383 510.289 466 507.728C434.791 503.131 409.354 484.987 389.615 461C370.301 437.53 355.61 409.486 328 394.312C306.648 382.577 281.885 378.807 258 384.015C249.492 385.87 237.459 389.738 231.418 396.329C228.565 399.442 227.326 404.079 226 408M218 436C262.384 437.91 301.634 472.501 322.988 509C339.403 537.056 349.421 567.388 376 588.331C393.436 602.069 416.433 609.817 438 614.199C444.527 615.525 452.33 618.093 459 617.61C467.156 617.02 475.129 613.985 483 612.036C508.606 605.693 533.958 596.636 560 592.286C574.683 589.833 590.102 587.655 605 588.015C621.312 588.408 638.709 591.027 655 588.7C662.998 587.557 670.441 583.992 678 581.343C696.223 574.957 714.137 567.268 731 557.86C752.483 545.875 773.026 532.714 797 526.152C802.266 524.71 807.63 523.598 812.999 522.614C815.159 522.218 818.332 522.291 819.821 520.397C821.669 518.046 820.998 513.792 821 511C816.62 510.651 812.38 509.396 808 509.089C788.654 507.734 768.607 509.505 750 515.036C717.822 524.602 690.43 545.551 658 554.576C623.919 564.06 588.515 557.096 554 564C536.568 567.487 519.679 573.336 502 575.718C472.546 579.685 442.949 575.858 416 563.111C397.925 554.562 381.352 540.841 369.236 525C350.007 499.859 337.852 470.948 313 450.286C293.954 434.45 270.377 425.763 246 422.845C239.974 422.123 225.753 419.367 221.089 424.6C218.611 427.38 218.288 432.471 218 436M216 449C221.656 457.007 230.497 462.277 238 468.424C248.002 476.619 256.88 485.734 264.765 496C272.354 505.881 278.896 516.733 284.219 528C287.165 534.237 288.988 542.494 293.498 547.79C297.191 552.126 303.389 554.763 308 558.039C315.535 563.393 322.508 569.872 328.385 577C333.868 583.649 338.932 590.462 343.138 598C345.382 602.022 347.109 608.169 351.329 610.567C355.665 613.032 362.152 613.117 367 613.92C378.454 615.817 390.374 617.904 402 618C395.929 613.41 387.633 611.342 381 607.396C368.074 599.706 356.995 589.6 347.464 578C328.017 554.333 319.3 524.643 301.572 500C280.661 470.933 250.318 455.375 216 449M211 466C210.981 472.918 207.804 481.328 209.642 488C211.273 493.92 215.918 499.29 219.666 504C228.19 514.714 240.255 521.789 252 528.424C258.951 532.352 266.302 536.782 274 539C267.577 516.696 249.219 495.488 232 480.729C225.761 475.381 218.902 468.621 211 466M208 512C208 521.582 208.548 531.495 209.715 541C210.157 544.594 209.887 548.645 211.938 551.816C216.425 558.751 227.752 562.02 235 565.011C246.694 569.837 258.557 574.376 270 579.781C276.945 583.061 283.696 587.689 291 590C289.621 583.314 288.186 576.652 286.651 570C285.885 566.68 285.462 562.983 283.297 560.213C280.813 557.034 276.505 555.501 273 553.753C265.402 549.963 257.472 546.706 250 542.691C240.56 537.618 231.391 532.175 223 525.486C217.734 521.289 213.427 515.947 208 512M587 642C597.634 642 608.535 642.755 619 640.489C630.342 638.034 640.411 632.946 651 628.427C670.732 620.008 690.483 611.401 711 605.025C721.848 601.654 732.802 598.598 744 596.615C750.461 595.471 757.925 595.608 764 592.914C769.362 590.537 773.608 585.495 778 581.729C786.412 574.517 794.869 567.327 804 561.025C808.242 558.098 815.213 555.498 817.825 550.895C820.361 546.425 819.997 539.967 820 535C783.999 539.574 756.544 559.869 725 575.752C697.829 589.434 668.761 597.998 642 612.694C629.674 619.464 617.676 626.608 605 632.742C599.61 635.349 590.616 637.181 587 642M300 570C301.873 575.898 303.025 581.929 304.197 588C304.721 590.718 304.766 594.205 306.317 596.581C307.955 599.089 311.4 599.786 314 600.861C319.866 603.286 325.804 605.567 332 607C330.799 601.765 327.677 597.334 324.572 593C318.254 584.184 310.41 574.026 300 570M814 570C802.408 577.822 790.974 586.153 781 596.004C777.213 599.744 772.511 603.297 770 608C783.247 605.504 794.395 601.154 804.999 592.539C811.431 587.314 816.66 578.65 814 570M216 571C221.392 578.321 230.37 583.628 238 588.424C244.773 592.682 251.226 597.412 258 601.681C288.701 621.032 319.654 651.208 358 652C355.529 645.481 350.638 640.123 347.309 634C345.42 630.525 343.85 625.531 340.529 623.14C336.976 620.58 331.164 620.216 327 619.116C318.874 616.969 310.645 614.192 303 610.691C273.968 597.398 245.508 583.285 216 571M219 593C224.021 605.92 234.148 614.218 245 622.373C265.723 637.948 289.773 652.465 316 656C310.585 651.467 303.819 648.346 298 644.28C282.504 633.452 266.998 622.764 251 612.681C240.944 606.343 230.337 596.613 219 593M493 625C514.174 625.968 534.484 635.904 556 634.961C582.976 633.778 608.266 616.657 631 604C622.687 600.51 610.908 602 602 602C574.988 602 548.801 607.073 523 614.975C516.069 617.098 508.97 618.705 502 620.709C498.619 621.681 495.169 622.138 493 625M603 663C606.584 664.099 610.319 662.614 614 662.156C622.465 661.102 630.681 659.262 639 657.424C667.656 651.095 699.772 644.887 724 627.573C730.667 622.808 740.084 617.33 744 610C732.066 611.541 720.377 615.541 709 619.333C672.673 631.442 639.132 650.697 603 663M678 676C681.556 676.84 685.437 675.548 689 674.789C697.523 672.974 705.729 670.368 714 667.67C738.105 659.805 762.74 651.301 783 635.575C792.153 628.47 800.484 620.844 805 610C794.729 612.959 785.806 618.86 775 620.561C768.255 621.623 759.057 618.249 753 621.176C744.496 625.286 736.62 633.71 729 639.37C712.254 651.81 695.243 664.271 678 676M358 626C361.148 632.734 365.552 638.828 369.667 645C371.657 647.985 373.553 651.921 376.518 654.062C381.283 657.502 389.424 656.719 395 657.59C411.573 660.179 428.322 661.556 445 663.17C465 665.105 485.168 667.53 505 670.754C515.85 672.518 527.948 676.8 539 675.826C547.189 675.104 555.38 671.703 563 668.808C573.151 664.951 583.404 661.116 593 656C586.771 653.313 578.709 653.521 572 652.576C558.26 650.639 544.65 648.038 531 645.576C514.34 642.57 497.593 639.896 481 636.551C470.381 634.41 459.729 630.709 449 629.304C443.775 628.62 438.191 630.098 433 630.714C425.063 631.657 416.999 632.181 409 631.985C391.836 631.565 375.045 626.734 358 626M232 629C234.552 637.928 239.819 652.499 247.185 658.49C252.062 662.456 260.047 663.102 266 664.424C276.465 666.749 287.123 669.656 297 673.85C320.441 683.804 341.844 699.345 366 707.484C396.239 717.672 426.677 716.647 458 716C448.57 710.95 436.121 709.771 426 705.797C416.946 702.242 408.283 696.53 399 693.785C390.576 691.294 381.545 690.362 373 688.116C358.43 684.285 344.47 678.557 330 674.427C311.499 669.148 292.574 664.738 275 656.691C259.147 649.433 246.232 638.73 232 629M787 649C758.487 668.219 723.344 680.456 690 688.346C683.744 689.826 677.341 691.533 671 692.562C661.108 694.166 648.918 694.318 643 704C682.731 707.136 725.758 705.05 760 682.333C769.254 676.193 776.512 669.517 782.388 660C784.427 656.698 787.577 652.954 787 649M673 662C667.271 664.433 661.002 665.154 655 666.735C634.926 672.02 614.651 675.865 594 677.83C588.042 678.397 581.925 677.358 576 678.21C568.895 679.232 561.697 683.072 555 685.576C545.176 689.249 535.047 692.286 525 695.279C509.629 699.859 493.175 700.389 478 705C482.651 707.006 488.017 706.688 493 707.17C504.06 708.24 514.941 708.223 526 707.17C560.807 703.855 598.831 703.005 632 690.772C643.79 686.423 654.036 679.447 664 671.87C667.008 669.583 673.105 666.061 673 662M348 665C355.924 670.928 370.256 674.566 380 676C372.33 665.587 359.854 665.936 348 665M394 671C399.049 677.113 406.978 681.672 414 685.244C442.919 699.953 479.509 692.293 510 686C505.802 683.768 500.672 683.519 496 682.87C487.693 681.715 479.339 680.727 471 679.834C445.355 677.087 419.698 673.028 394 671M257 676C259.224 681.781 263.898 688.707 269.039 692.298C273.606 695.487 279.721 696.072 285 697.374C298.025 700.589 311.561 703 325 703C321.438 700.048 317.039 698.378 313 696.139C294.844 686.075 276.72 681.542 257 676M321 746C327.518 757.373 338.909 754.554 350 755.039C369.385 755.888 388.384 758.956 407 764.424C417.082 767.386 426.767 775.243 437 776.787C446.642 778.242 458.274 775.771 468 775.089C488.819 773.63 509.281 769.746 530 767.286C539.304 766.181 548.684 766.056 558 765.17C574.577 763.592 591.408 764.749 608 763.17C612.285 762.762 616.871 763.597 621 762.121C628.754 759.349 635.414 751.247 642 746.377C652.365 738.715 664.161 732.49 676 727.427C688.609 722.036 701.399 719.465 715 718.17C723.328 717.377 734.035 718.775 741.83 715.272C747.3 712.815 751.919 705.926 755 701C744.767 703.948 735.416 709.51 725 712.265C707.301 716.947 688.195 718.164 670 718.961C660.092 719.395 649.792 718.936 640 717.41C635.072 716.642 627.827 713.497 623 714.937C617.7 716.518 612.571 721.3 608 724.333C599.975 729.656 591.671 734.546 583 738.742C558.287 750.699 530.305 757.041 503 758.911C441.946 763.092 381.868 746 321 746M283 711C287.466 717.34 295.593 727.428 303 730.258C306.691 731.668 311.135 730.87 315 731.039C320.698 731.289 326.268 731.936 332 732.004C344.589 732.154 357.465 733.916 370 735.169C427.743 740.943 486.519 754.281 544 739.116C565.282 733.501 582.992 723.583 602 713C597.799 711.493 592.358 713.205 588 713.92C580.066 715.221 571.993 716.052 564 716.95C530.673 720.692 497.394 725.599 464 728.83C438.079 731.339 411.766 730.368 386 726.714C375.222 725.186 364.789 721.815 354 720.286C330.262 716.92 306.639 715.584 283 711M647 760C664.915 755.735 684.561 758.647 702 751.546C708.442 748.923 713.775 744.622 719 740.13C722.337 737.262 725.446 734.595 728 731C705.984 731 684.243 736.033 665 747.001C659.015 750.412 650.652 753.981 647 760M353 770C360.154 777.44 370.855 781.748 380 786.244C394.467 793.357 409.727 798.91 425 804C435.877 807.625 447.472 811.505 459 812C453.691 805.925 446.54 801.252 440 796.579C413.785 777.844 384.986 770 353 770M600 795C627.583 793.816 654.112 788.252 677 772C670.508 769.276 661.797 772.293 655 772.925C635.049 774.78 611.442 775.022 600 795M597 777C590.987 778.777 584.239 778 578 778C567.562 778.001 556.397 778.18 546 779.17C515.651 782.058 485.547 789 455 789C457.184 793.482 461.146 796.13 465 799.199C474.062 806.417 486.04 812.092 498 808.347C503.359 806.669 507.276 801.796 512 798.927C519.152 794.583 527.69 791.973 536 791.17C544.304 790.367 553.045 792.16 561 794.427C565.568 795.73 571.167 798.577 576 798.218C582.196 797.759 588.583 787.556 592.98 783.576C595.19 781.576 597.063 779.973 597 777M511 818C519.583 818 528.453 818.644 537 817.83C547.469 816.833 557.633 814.396 568 813C557.727 802.626 536.745 801.854 524 807.338C518.619 809.653 513.567 812.613 511 818M586 810L596 808C592.146 806.387 588.888 807.051 586 810z"/>
</svg>
