<?xml version="1.0" standalone="yes"?>
<svg xmlns="http://www.w3.org/2000/svg" width="1024" height="1024" viewBox="80 80 850 880">
<path style="fill:#00000000; stroke:none;" d="M0 0L0 1024L1024 1024L1024 0L0 0z"/>
<path style="fill:#035331; stroke:none;" d="M483 93.4244C465.963 95.6613 448.903 97.0471 432 100.449C375.094 111.902 318.046 134.85 271 169.151C217.742 207.982 170.797 257.785 139.309 316C115.085 360.785 100.263 408.909 92.439 459C88.1363 486.549 87.9996 515.253 89.9105 543C93.9939 602.295 109.933 660.539 138.309 713C187.519 803.979 274.531 876.273 372 910.305C436.709 932.898 505.355 937.83 573 928.718C633.451 920.574 693.278 898.145 744 864.333C844.077 797.622 912.298 693.294 929.572 574C934.71 538.514 934.334 501.615 930.83 466C914.047 295.395 778.338 149.01 615 106.116C581.828 97.4043 548.262 93 514 93C503.804 93 493.117 92.096 483 93.4244z"/>
<path style="fill:#FFFFFF; stroke:none;" d="M274 211C282.808 216.278 297.099 214 307 214C339.649 214 371.687 208.544 400 191.189C406.128 187.432 411.895 183.073 416.985 177.985C422.464 172.509 426.961 166.29 435 164.533C447.303 161.845 459.639 174.961 457.667 187C456.216 195.865 448.505 202.296 442 207.714C432.153 215.916 421.444 222.994 410 228.752C404.348 231.597 395.552 233.577 392 239C404.107 242.488 415.954 249.718 427 255.691C443.914 264.839 461.039 274.232 479 281.189C548.167 307.981 629.25 305.952 693 266.05C708.71 256.217 723.095 244.484 735.513 230.714C740.417 225.276 746.318 219.924 749 213C724.841 194.792 700.64 178 673 165.309C580.745 122.948 475.525 118.663 380 152.692C353.502 162.131 327.751 175.012 304 190.053C293.686 196.585 284.304 204.562 274 211z"/>
<path style="fill:#035331; stroke:none;" d="M510 166.532C496.621 169.72 489.951 185.921 496 198C500.618 207.221 511.097 211.607 521 209.319C541.715 204.534 544.036 173.146 523 166.8C519.056 165.61 514.002 165.579 510 166.532M637 188.439C612.186 192.315 587.247 208.386 577.231 232C571.866 244.65 568.099 269.259 587 272.671C589.552 273.131 592.435 273.178 595 272.787C611.683 270.242 608.9 250.186 618.21 240.09C623.401 234.461 630.57 230.648 638 229.015C645.697 227.324 653.687 227.96 659.671 221.787C668.501 212.676 665.399 197.101 654.961 190.613C649.767 187.385 642.858 187.524 637 188.439z"/>
<path style="fill:#FFFFFF; stroke:none;" d="M531 335C538.125 342.775 549.428 348.26 559 352.424C574.837 359.314 590.834 364.648 608 367C663.199 374.563 721.854 357.835 767 325.573C785.264 312.521 800.305 296.823 815 280C806.315 264.976 791.273 253.926 780 241C770.306 245.521 762.642 257.53 755 264.985C742.018 277.649 727.384 288.992 712 298.575C670.479 324.437 623.405 335.841 575 337.961C560.289 338.605 545.695 335.002 531 335M135 429C197.467 433.93 264.575 433.338 321 401.86C334.596 394.276 347.651 385.747 358.046 373.996C362.382 369.096 367.364 361.975 365.424 355.004C362.543 344.654 348.345 345.013 340 345.95C328.488 347.242 317.44 351.015 306 352.701C286.986 355.502 268.602 353.223 251 345.41C237.084 339.233 221.79 322.347 237.105 308.329C248.92 297.515 259.047 306.002 271 310.907C279.19 314.269 288.187 315.517 297 314.911C320.074 313.322 340.431 302.974 364 308.895C372.322 310.986 380.446 314.706 387 320.301C391.853 324.444 396.056 329.374 399.099 335C417.994 369.933 384.75 405.478 358 423.656C350.903 428.479 343.029 432.126 336 437C341.653 440.557 348.798 441.989 355 444.45C367.001 449.212 379.417 454.561 390 462.043C397.866 467.605 405.256 476.873 401.436 487C398.35 495.181 387.967 502.352 379 500.171C372.656 498.628 367.45 493.775 362 490.464C354.466 485.886 346.246 482.035 338 478.95C311.939 469.201 283.846 464.333 256 465.015C236.622 465.489 217.362 469.113 198 469.961C174.192 471.003 150.68 468 127 468C126.855 475.031 125.347 481.982 125.039 489C124.501 501.286 125 513.701 125 526C142.776 523.375 160.236 516.57 178 513.261C217.82 505.843 258.907 505.647 298 517.144C310.933 520.948 324.471 526.187 336 533.204C342.454 537.133 348.524 542.324 350.316 550C353.368 563.081 339.707 575.398 327 572.471C319.763 570.803 313.492 565.308 307 561.889C299.3 557.834 290.394 555.102 282 552.884C240.632 541.957 196.867 547.121 156 557.63C149.631 559.267 143.318 561.175 137 563C134.499 563.722 130.622 564.172 129.042 566.513C127.767 568.403 128.434 570.942 128.805 573C129.71 578.028 130.316 583.034 131.525 588C135.616 604.79 138.829 621.598 144.505 638C146.058 642.491 147.794 652.033 151.702 654.972C153.595 656.396 156.758 656.125 159 656.424C167.022 657.496 174.939 656 183 656C217.029 656 251.455 647.188 284 637.859C332.601 623.927 383.988 608.088 425 577.622C455.683 554.829 479.054 524.181 508 499.428C539.786 472.247 577.569 451.984 619 444.463C627.926 442.843 637.012 442.686 646 441.83C680.899 438.507 715.48 449.319 750 438.254C761.166 434.675 772.051 429.371 781 421.7C787.681 415.973 792.341 407.119 801 404.109C812.525 400.102 825.292 408.926 826.362 421C827.351 432.167 817.503 440.553 810 447.155C790.534 464.285 768.33 474.535 743 479.6C706.583 486.883 669.509 476.545 633 481.289C575.799 488.723 533.468 523.779 494.826 564.089C484.644 574.712 471.893 584.371 463 596C482.756 593.34 501.878 584.1 520 576.281C550.391 563.169 580.324 548.869 612 539.025C633.82 532.245 656.293 527.01 679 524.286C714.554 520.02 750.377 519.949 786 515.95C813.643 512.846 841.282 506.667 868 499C874.358 497.176 880.674 495.209 887 493.279C889.598 492.487 893.291 491.7 894.972 489.351C897.301 486.097 895.921 479.657 895.424 476C894.013 465.639 892.834 455.31 891.081 445C883.345 399.516 866.304 350.555 839 313C833.036 317.201 828.397 322.947 823 327.83C810.034 339.562 796.569 350.768 782 360.485C727.151 397.068 656.519 416.299 591 403.192C557.112 396.413 525.969 380.048 499 358.789C479.944 343.768 463.277 326.012 444 311.235C408.078 283.701 363.923 262.543 319 255.576C294.957 251.847 271.098 250.544 247 254.586C240.155 255.735 229.018 255.873 223.576 260.434C214.447 268.084 206.749 278.522 199.627 288C186.399 305.602 174.603 324.301 164.753 344C155.828 361.849 148.498 380.025 142.33 399C139.227 408.547 135.44 418.912 135 429z"/>
<path style="fill:#035331; stroke:none;" d="M455 422.529C427.532 428.824 436.182 472.846 464 466.471C467.55 465.657 471.149 463.926 473.96 461.61C491.401 447.239 477.252 417.43 455 422.529z"/>
<path style="fill:#FFFFFF; stroke:none;" d="M170 696C179.075 717.792 196.106 739.805 212.09 757C216.243 761.468 222.783 771.922 229 773.248C234.664 774.457 242.923 763.888 247 760.665C261.984 748.819 278.346 739.158 296 731.861C319.837 722.009 345.377 716.61 371 714.17C388.566 712.497 406.39 713.118 424 711.911C441.371 710.72 459.503 706.826 476 701.333C499.425 693.534 520.791 683.283 540 667.537C545.498 663.03 551.053 658.272 555.83 653C559.863 648.551 563.558 643.296 569 640.442C580.223 634.556 595.008 642.406 596.783 655C598.367 666.237 589.107 673.896 582 681C569.923 693.073 556.496 703.546 542 712.575C534.933 716.977 522.57 721.003 518 728C537.75 732.569 556.954 739.268 577 742.75C608.707 748.257 642.236 746.475 673 736.656C693.502 730.112 713.93 720.825 731 707.575C739.787 700.754 748.471 687.186 761 688.415C772.337 689.528 781.543 701.856 778.2 713C776.278 719.406 771 724.267 766 728.385C737.933 751.502 703.824 769.586 668 777C671.691 782.587 681.92 784.834 688 787.189C704.405 793.543 720.977 799.393 738 803.884C743.608 805.364 752.262 809.145 758 807.103C762.895 805.362 767.135 800.584 771 797.271C780.214 789.371 788.697 780.694 797.093 771.961C858.429 708.163 896 619.77 896 531C881.425 532.272 866.256 539.007 852 542.525C829.581 548.058 806.858 551.638 784 554.718C735.441 561.259 685.636 557.065 638 571.036C579.359 588.234 526.111 619.682 467 635.265C452.746 639.023 437.682 642.339 423 643.831C404.742 645.686 385.858 645.908 368 650.478C346.317 656.027 325.46 664.884 304 671.279C260.23 684.324 215.744 694.036 170 696z"/>
<path style="fill:#035331; stroke:none;" d="M234 584.518C223.521 585.301 215.129 592.446 213.329 603C211.059 616.313 222.153 630.14 236 628.823C241.714 628.279 247.688 626.054 251.671 621.815C265.209 607.406 253.851 583.034 234 584.518M824 589.529C813.525 591.93 805.947 601.643 797 607.075C782.247 616.032 764.282 621.406 747 621.957C738.099 622.241 728.053 619.781 720 616.1C708.996 611.069 697.831 602.33 686.174 611.638C677.699 618.404 676.755 631.471 683.174 639.91C686.751 644.612 691.795 647.221 697 649.742C722.111 661.9 752.199 663.152 779 656.116C796.311 651.571 812.134 644.248 827 634.333C832.835 630.442 839.22 626.587 843.606 620.996C854.817 606.706 842.003 585.404 824 589.529z"/>
<path style="fill:#FFFFFF; stroke:none;" d="M258 803C271.321 812.273 283.446 823.293 297 832.333C301.15 835.101 307.765 841.298 313 841.264C317.687 841.233 321.997 834.989 325 832.001C333.554 823.488 342.96 815.893 353 809.205C381.063 790.513 416.596 783.959 449 793.885C462.509 798.023 478.008 806.281 486.362 818C493.481 827.987 491.592 840.748 480.996 847.438C464.882 857.612 453.724 836.745 440 831.696C415.175 822.564 388.629 829.472 368 845.13C361.831 849.813 354.335 854.849 351 862C361.823 868.293 374.166 872.556 386 876.515C409.221 884.284 432.75 889.761 457 893.13C472.78 895.323 489.834 897.039 505 891.189C522.772 884.334 540.904 875.287 556 863.575C565.078 856.532 574.456 843.667 587 844.058C598.743 844.424 608.804 857.537 605.351 869C603.124 876.392 596.282 882.071 590 886C594.737 887.983 600.205 886.246 605 885C611.328 883.356 617.706 882.1 624 880.291C646.15 873.926 667.393 865.551 688 855.247C697.495 850.5 707.94 846.028 716 839C695.871 829.584 674.515 822.184 654 813.576C565.742 776.54 470.116 743.432 373 752.83C340.844 755.942 307.98 763.721 281 782.435C273.722 787.483 260.695 794.156 258 803z"/>
</svg>
